<svg xmlns="http://www.w3.org/2000/svg" xmlns:xlink="http://www.w3.org/1999/xlink" version="1.1" xml:space="preserve" viewBox="3 8 34 24">
<desc>Created with Fabric.js 3.6.6</desc>
<defs>
</defs>
<g transform="matrix(1 0 0 1 49.34 20)">
<g style="">
		<g transform="matrix(1 0 0 1 -29.34 0)">
<g style="">
		<g transform="matrix(1 0 0 1 0 0)">
<path style="stroke: none; stroke-width: 1; stroke-dasharray: none; stroke-linecap: butt; stroke-dashoffset: 0; stroke-linejoin: miter; stroke-miterlimit: 4; fill: rgb(187,221,245); fill-rule: nonzero; opacity: 1;" transform=" translate(-18, -18)" d="M 29 11 h 6 v 14 h -6 z M 1 11 h 6 v 14 H 1 z m 8 0 h 18 v 14 H 9 z" stroke-linecap="round"/>
</g>
		<g transform="matrix(1 0 0 1 0 0)">
<path style="stroke: none; stroke-width: 1; stroke-dasharray: none; stroke-linecap: butt; stroke-dashoffset: 0; stroke-linejoin: miter; stroke-miterlimit: 4; fill: rgb(35,31,32); fill-rule: nonzero; opacity: 1;" transform=" translate(-18, -18)" d="M 35 11 V 6 H 1 v 5 h 6 v 14 H 1 v 5 h 34 v -5 h -6 V 11 h 6 z m -8 14 H 9 V 11 h 18 v 14 z" stroke-linecap="round"/>
</g>
		<g transform="matrix(1 0 0 1 0 0)">
<path style="stroke: none; stroke-width: 1; stroke-dasharray: none; stroke-linecap: butt; stroke-dashoffset: 0; stroke-linejoin: miter; stroke-miterlimit: 4; fill: rgb(245,248,250); fill-rule: nonzero; opacity: 1;" transform=" translate(-18, -18)" d="M 31 7 h 2 v 3 h -2 z m -4 0 h 2 v 3 h -2 z m -4 0 h 2 v 3 h -2 z m -4 0 h 2 v 3 h -2 z m -4 0 h 2 v 3 h -2 z m -4 0 h 2 v 3 h -2 z M 7 7 h 2 v 3 H 7 z M 3 7 h 2 v 3 H 3 z m 28 19 h 2 v 3 h -2 z m -4 0 h 2 v 3 h -2 z m -4 0 h 2 v 3 h -2 z m -4 0 h 2 v 3 h -2 z m -4 0 h 2 v 3 h -2 z m -4 0 h 2 v 3 h -2 z m -4 0 h 2 v 3 H 7 z m -4 0 h 2 v 3 H 3 z" stroke-linecap="round"/>
</g>
		<g transform="matrix(1 0 0 1 1.5 0)">
<path style="stroke: none; stroke-width: 1; stroke-dasharray: none; stroke-linecap: butt; stroke-dashoffset: 0; stroke-linejoin: miter; stroke-miterlimit: 4; fill: rgb(136,201,249); fill-rule: nonzero; opacity: 1;" transform=" translate(-19.5, -18)" d="M 29 25 V 11 h 1 v 14 z M 9 25 V 11 h 1 v 14 z" stroke-linecap="round"/>
</g>
</g>
</g>
		<g transform="matrix(1 0 0 1 6.84 0.3)" style="">
		<text xml:space="preserve" font-family="'Open Sans', sans-serif" font-size="15" font-style="normal" font-weight="normal" style="stroke: none; stroke-width: 1; stroke-dasharray: none; stroke-linecap: butt; stroke-dashoffset: 0; stroke-linejoin: miter; stroke-miterlimit: 4; fill: rgb(0,0,0); fill-rule: nonzero; opacity: 1; white-space: pre;"><tspan x="-40" y="4.71" style="font-weight: bold; ">2</tspan></text>
</g>
</g>
</g>
</svg>